<?xml version="1.0" encoding="iso-8859-1"?>
<!-- Generator: Adobe Illustrator 25.4.1, SVG Export Plug-In . SVG Version: 6.00 Build 0)  -->
<svg version="1.1" id="Layer_1" xmlns="http://www.w3.org/2000/svg" xmlns:xlink="http://www.w3.org/1999/xlink" x="0px" y="0px"
	 width="1317.02px" height="2550.819px" viewBox="0 0 1317.02 2550.819" enable-background="new 0 0 1317.02 2550.819"
	 xml:space="preserve">
<g>
	<path fill="#93290C" d="M510.103,2549.173c9.408,0.167,18.803,0.33,28.18,0.509l0.223,0.005l0.22,0.013
		c49.903,3.032,100.981-0.672,150.369-4.261c32.809-2.385,66.731-4.848,100.307-5.363c35.15-2.665,70.914-4.145,105.506-5.575
		c66.819-2.764,135.909-5.62,202.531-17.197c11.643-3.154,23.77-5.906,35.505-8.571c40.6-9.22,82.587-18.755,111.527-46.417
		l0.229-0.211c74.947-67.08,66.576-617.62,59.192-708.645l-0.78-10.226c0.713-30.718,2.888,87.407,4.988,57.294
		c2.419-34.658,4.923-70.495,5.177-105.615l0.003-0.211l0.011-0.209c7.656-132.243,2.013-267.139-3.446-397.593
		c-2.123-50.727-4.318-252.235-5.704-303.863c-0.229-18.716,0.708-37.415,1.614-55.499c1.545-30.789,3.14-62.627-1.149-93.775
		l-0.071-0.815c-0.491-12.713-0.821-25.621-1.141-38.105c-1.187-46.412-2.417-392.721-12.179-438.864l-0.052-0.272
		c-5.621-31.692-6.858-64.396-8.053-96.022c-2.35-62.103-4.568-120.762-36.903-173.836l-0.651-1.299
		c-28.851-72.159-117.689-82.467-214.071-87.225c-71.509,1.358-144.007-1.1-214.126-3.476c-70.946-2.404-144.313-4.89-216.376-3.399
		C564.35,2.993,527.111,4.898,491.093,6.74c-63.539,3.248-129.242,6.608-193.406,13.577l-0.532,0.044
		c-14.448,0.84-28.908,1.578-43.37,2.317c-35.582,1.818-72.374,3.698-108.304,7.128c-9.808,0.937-13.554,2.031-14.963,2.661
		c-4.906,8.894-12.429,10.903-17.478,12.253c-1.297,0.345-2.517,0.673-3.562,1.074l-0.881,0.294
		c-59.8,17.001-82.158,79.703-90.381,129.397C1.839,315.834,3.054,757.936,4.231,896.98c0.378,44.677,0.768,239.927,0.571,285.314
		l-0.003,0.219l-0.837,14.544c-3.661,63.202-7.45,128.556,1.853,192.34l0.084,0.977c0.54,19.96,0.291,40.322,0.047,60.014
		c-0.457,37.226-0.928,224.771,3.935,261.995l0.094,0.711l-0.03,0.716c-4.234,101.156-0.855,349.082,2.411,444.7
		c2.607,76.279,5.3,155.151,4.285,236.423c1.901,29.31,26.426,88.307,61.195,97.61l0.966,0.308
		C214.885,2543.986,364.968,2546.616,510.103,2549.173z M150.999,2482.444c-68.572-8.807-104.842-44.885-104.904-104.382
		l-0.01-8.301l2.323-0.181c-1.401-73.749-4.873-297.659-8.233-370.142c-3.551-76.568-7.224-155.745-8.458-233.611l-0.002-0.238
		l0.009-0.239c3.349-80.591,2.459-311.744,1.599-391.142c-0.972-89.721-1.978-331.537,3.102-422.921
		C28.372,778.364,23.33,311.341,49.504,148.268l0.197-0.909c6.139-22.19,18.459-45.397,36.617-68.975l0.423-0.51
		c21.68-24.29,89.374-29.167,175.619-33.018c25.699-1.148,47.895-2.139,62.069-4.12l0.725-0.076
		c134.219-9.4,245.889-15.455,351.43-19.054l0.481-0.016l0.479,0.026c120.5,6.785,221.854,11.054,324.855,9.827l0.441-0.004
		l0.443,0.031c8.566,0.612,17.183,1.135,25.825,1.661c43.52,2.645,88.52,5.379,130.636,19.675l1.063,0.362l0.948,0.576
		c86.557,52.701,87.882,143.759,89.163,231.819c0.496,34.202,0.967,66.507,6.25,96.364l0.105,0.834
		c2.271,30.455,4.876,359.742,7.395,389.694c3.209,38.176,6.53,77.65,9.197,116.532l0.04,0.6l-0.044,0.598
		c-4.782,63.21-4.776,277.742,0.017,349.23l0.015,0.291c1.106,34.627,2.504,69.859,3.857,103.931
		c5.694,143.34,11.58,142.296-2.656,288.179l-0.033,0.284c-4.804,36.308-2.486,76.324-0.033,118.69
		c5.008,86.521,10.188,623.355-47.263,687.383l-0.838,0.824c-30.549,26.466-70.8,34.966-109.727,43.185
		c-5.626,1.189-11.219,2.369-16.733,3.598c-62.153,14.372-126.102,17.006-187.943,19.552c-26.237,1.082-53.364,2.2-79.919,4.203
		l-0.574,0.026c-36.155,0.763-72.938,2.815-108.507,4.799c-51.903,2.894-105.571,5.889-158.739,4.98l-6.044-0.001
		c-39.004-0.023-78.4-0.047-117.857-0.941C343.114,2516.179,244.915,2508.612,150.999,2482.444z"/>
	<path fill="#93290C" d="M519.553,2497.195c8.59,0.15,17.169,0.298,25.733,0.46l0.153,0.004l0.153,0.009
		c45.705,2.825,92.397-0.698,137.556-4.124c29.937-2.272,60.893-4.62,91.496-5.121c32.061-2.54,64.706-3.96,96.279-5.332
		c61.106-2.658,124.287-5.408,185.296-16.415c10.614-2.982,21.697-5.589,32.42-8.114c37.395-8.804,76.063-17.906,103.01-44.518
		c69.578-64.359,61.969-162.377,55.255-248.856l-0.697-9.369c0.673-28.902,2.68-207.286,4.621-235.653
		c2.239-32.737,4.555-364.904,4.818-398.12c7.114-125.144,2.068-103.192-2.813-226.311c-1.893-47.817-3.853-246.315-5.078-294.971
		c-0.19-17.528,0.678-35.124,1.519-52.139c1.44-29.165,2.929-59.324-0.992-88.951l-0.044-0.502
		c-0.437-11.971-0.727-24.136-1.008-35.9c-1.051-43.898-2.137-387.606-11.059-431.366c-5.104-29.87-6.203-60.619-7.265-90.355
		c-2.108-58.936-4.098-114.605-33.919-165.243l-0.4-0.82c-29.055-75.246-130.38-80.41-197.576-83.775
		c-65.231,1.331-131.393-0.934-195.384-3.128c-64.801-2.223-131.809-4.518-197.669-3.057c-33.437,2.424-67.448,4.247-100.336,6.01
		c-58.023,3.11-118.024,6.326-176.655,12.949l-0.365,0.032c-13.177,0.801-26.366,1.506-39.555,2.213
		c-32.507,1.741-66.121,3.542-98.975,6.807c-11.431,1.139-14.49,2.615-15.27,3.186c-3.94,7.984-10.176,9.71-14.745,10.976
		c-1.245,0.344-2.42,0.671-3.494,1.097l-0.597,0.206c-55.958,16.478-76.815,76.771-84.461,124.448
		c-15.073,132.39-14.078,566.479-13.117,697.781c0.311,42.116,0.629,234.718,0.411,277.495l-0.001,0.133l-0.009,0.135l-0.765,13.526
		c-3.399,59.743-6.916,121.52,1.558,181.943l0.05,0.601c0.475,18.775,0.231,37.958-0.004,56.509
		c-0.452,35.201-0.915,220.655,3.518,255.946l0.055,0.438l-0.018,0.44c-3.95,95.52-0.947,188.831,1.959,279.069
		c2.315,71.941,4.712,295.373,3.717,371.996c1.707,28.295,24.798,85.47,57.646,94.533l0.658,0.216
		C249.711,2492.499,386.874,2494.885,519.553,2497.195z"/>
</g>
<g>
</g>
<g>
</g>
<g>
</g>
<g>
</g>
<g>
</g>
<g>
</g>
<g>
</g>
<g>
</g>
<g>
</g>
<g>
</g>
<g>
</g>
<g>
</g>
<g>
</g>
<g>
</g>
<g>
</g>
</svg>
